<svg id="Layer_1" data-name="Layer 1" xmlns="http://www.w3.org/2000/svg" xmlns:xlink="http://www.w3.org/1999/xlink" viewBox="0 0 734.8 848.4"><defs><style>.cls-1{fill:#000007;}.cls-2{fill:url(#radial-gradient);}.cls-3,.cls-7{fill:#fff;}.cls-4{fill:#a51d21;}.cls-5{fill:#606060;stroke:#006;stroke-miterlimit:10;stroke-width:4px;}.cls-6{fill:url(#linear-gradient);}.cls-7{font-size:86.75px;font-family:BaskOldFace, Baskerville Old Face;}</style><radialGradient id="radial-gradient" cx="366.16" cy="424.31" fy="315.05336730419293" r="375.51" gradientUnits="userSpaceOnUse"><stop offset="0.02" stop-color="#fff"/><stop offset="0.17" stop-color="silver"/><stop offset="0.34" stop-color="#878787"/><stop offset="0.5" stop-color="#565656"/><stop offset="0.65" stop-color="#313131"/><stop offset="0.78" stop-color="#161616"/><stop offset="0.91" stop-color="#060606"/><stop offset="1"/></radialGradient><linearGradient id="linear-gradient" x1="368.19" y1="816.14" x2="368.19" y2="816.14" gradientUnits="userSpaceOnUse"><stop offset="0.36" stop-color="#006"/><stop offset="0.71" stop-color="#1a0ca5"/><stop offset="0.76" stop-color="#2520b0"/><stop offset="1" stop-color="#5c7ee5"/></linearGradient></defs><title>pagedown gradient printer</title><polygon class="cls-1" points="713.23 223.45 365.63 22.75 365.63 22.75 17.93 223.45 17.93 624.95 365.63 825.65 713.23 624.95 713.23 223.45"/><polygon class="cls-2" points="713.81 223.56 366.21 22.86 366.21 22.86 18.51 223.56 18.51 625.07 366.21 825.76 713.81 625.07 713.81 223.56"/><path class="cls-3" d="M372.53,796.65l4.49,4.51a37.57,37.57,0,0,1,2.7,2.91h.1c-.4-1.2-.7-2.5-1-3.8L377.44,794l1.6-.89,4.69,4.31a35.75,35.75,0,0,1,2.89,2.91h.1a29.31,29.31,0,0,1-1.19-3.81l-1.58-6.1,1.9-1.1,2.67,12.31-1.7,1-4.49-4.11c-1-.91-2-1.91-2.9-2.91h0c.4,1.3.8,2.6,1.1,4l1.18,6-1.7,1L370.83,798Z" transform="translate(-0.1 -1)"/><path class="cls-3" d="M388.65,787.29l4.49,4.51a35.83,35.83,0,0,1,2.7,2.91h.1a39.06,39.06,0,0,1-1-3.8l-1.39-6.31,1.6-.89,4.69,4.31a39.57,39.57,0,0,1,2.9,2.9h.1c-.5-1.3-.8-2.6-1.2-3.9l-1.58-6.2,1.9-1.1,2.67,12.41-1.7,1L398.45,789a37.65,37.65,0,0,1-2.89-2.9h0c.39,1.3.79,2.6,1.09,4l1.18,6-1.7,1L387,788.49Z" transform="translate(-0.1 -1)"/><path class="cls-3" d="M404.88,777.93l4.49,4.51a35.79,35.79,0,0,1,2.69,2.91h.1c-.4-1.21-.7-2.51-1-3.81l-1.39-6.3,1.6-.9,4.69,4.31c1.1,1,2.1,2,2.9,2.91h.1c-.5-1.3-.8-2.6-1.19-3.9l-1.59-6.1,1.9-1.1,2.67,12.41-1.7,1-4.49-4.11a37.79,37.79,0,0,1-2.89-2.91h0c.4,1.31.79,2.61,1.09,4l1.19,6-1.71,1-9.18-8.63Z" transform="translate(-0.1 -1)"/><path class="cls-3" d="M424.17,779.17a1.48,1.48,0,0,1,.41-2.1.1.1,0,0,0,.1-.1,1.47,1.47,0,0,1,2,.51.1.1,0,0,0,.1.1,1.51,1.51,0,1,1-2.51,1.69C424.17,779.27,424.17,779.27,424.17,779.17Z" transform="translate(-0.1 -1)"/><path class="cls-3" d="M425.59,770.28c-.69-1.2-1.39-2.31-2-3.21l1.7-1,1.3,2h.1a3.57,3.57,0,0,1,1.61-4,1.42,1.42,0,0,1,.6-.2l1,1.81c-.2.1-.5.2-.7.3a3,3,0,0,0-1.11,3.89c.1.3.3.6.4.9l3.19,5.61-1.8,1.1Z" transform="translate(-0.1 -1)"/><path class="cls-3" d="M435.39,771.6a6,6,0,0,0,2.9-.69c1.4-.8,1.61-1.9,1.11-2.7s-1.4-1.1-3.1-.81c-2.3.4-3.8-.11-4.5-1.31-1-1.7-.39-3.8,1.82-5.19a6,6,0,0,1,2.9-.8l.29,1.7a5.42,5.42,0,0,0-2.5.6,1.84,1.84,0,0,0-1,2.29c0,.1,0,.1.1.21.49.9,1.39.9,3,.6,2.2-.39,3.7,0,4.59,1.51,1.1,1.81.39,4-2.11,5.4a6.73,6.73,0,0,1-3.4,1Z" transform="translate(-0.1 -1)"/><path class="cls-3" d="M439.83,753.61l1.8,3,2.7-1.59.8,1.5-2.71,1.6,3.29,5.6c.8,1.31,1.5,1.81,2.6,1.21a3.92,3.92,0,0,0,1-.8l.9,1.4a5.87,5.87,0,0,1-1.51,1.2,3.11,3.11,0,0,1-2.5.39,4.26,4.26,0,0,1-2.29-2.3l-3.29-5.71-1.6.9-.8-1.5,1.6-.9-1.49-2.5Z" transform="translate(-0.1 -1)"/><path class="cls-3" d="M459.63,756.36a21.62,21.62,0,0,0,1.79,2.8l-1.7,1-1.1-1.61h0a4.59,4.59,0,0,1-2.31,4c-1.6,1-4.1,1.19-6.29-2.52l-3.59-6.1,1.9-1.1,3.39,5.81c1.2,2,2.49,3,4.3,2a3.18,3.18,0,0,0,1.5-3.2,4.83,4.83,0,0,0-.39-1.1l-3.69-6.41,1.9-1.09Z" transform="translate(-0.1 -1)"/><path class="cls-3" d="M464.57,736.77l7.37,12.61a19.07,19.07,0,0,0,1.7,2.61l-1.71,1-1.09-1.8h0a4.47,4.47,0,0,1-2.41,4.1c-2.5,1.49-5.7.48-7.59-2.72-2-3.51-1.09-6.9,1.41-8.3a4.06,4.06,0,0,1,4.11-.19h0l-3.59-6.21ZM468,747.08c-.2-.3-.3-.51-.5-.81a3.2,3.2,0,0,0-4-.6c-2,1.09-2.11,3.49-.81,5.89,1.19,2.11,3.29,3.31,5.29,2.12a3.5,3.5,0,0,0,1.11-4.8Z" transform="translate(-0.1 -1)"/><path class="cls-3" d="M471,735.68a1.39,1.39,0,1,1-2.4,1.4h0a1.37,1.37,0,0,1,.51-1.9h0a1.33,1.33,0,0,1,1.89.5Zm5.67,14.62-6.07-10.52,1.9-1.09,6.07,10.51Z" transform="translate(-0.1 -1)"/><path class="cls-3" d="M488.07,736.52c2.19,3.91.59,7.1-2,8.6-2.8,1.59-6.2.78-8.09-2.52-2-3.51-1-6.9,2-8.6S486.28,733.42,488.07,736.52Zm-8.21,5c1.3,2.31,3.69,3.21,5.5,2.22s2.2-3.6.81-5.9c-1-1.8-3.19-3.51-5.5-2.21s-2,3.89-.81,5.89Z" transform="translate(-0.1 -1)"/><path class="cls-3" d="M492,739.93a1.5,1.5,0,1,1,2.71-1.29,1.49,1.49,0,0,1-.61,2,1.47,1.47,0,0,1-2-.51A.31.31,0,0,1,492,739.93Z" transform="translate(-0.1 -1)"/><path class="cls-3" d="M504.78,733.46a7.06,7.06,0,0,1-2.61,2.3,5.76,5.76,0,0,1-8.29-2.32,6.26,6.26,0,0,1,1.82-8.5l.6-.3a6.29,6.29,0,0,1,3-1l.4,1.7a4.7,4.7,0,0,0-2.5.79c-2.41,1.4-2.71,3.9-1.42,6.1,1.4,2.4,3.8,3,5.9,1.81a5.93,5.93,0,0,0,2-1.89Z" transform="translate(-0.1 -1)"/><path class="cls-3" d="M513.51,721.88c2.29,3.91.58,7.1-2,8.6-2.81,1.59-6.2.78-8.1-2.52-2-3.51-.88-6.9,2-8.6S511.61,718.68,513.51,721.88Zm-8.21,4.88c1.29,2.31,3.69,3.21,5.49,2.22s2.21-3.6.81-5.9c-1-1.81-3.19-3.51-5.49-2.22S504.1,724.76,505.3,726.76Z" transform="translate(-0.1 -1)"/><path class="cls-3" d="M514.62,718.18c-.6-1.1-1.2-2-1.7-2.8l1.7-1,1.1,1.61h.1a4,4,0,0,1,2.21-3.8,3.65,3.65,0,0,1,4.2.41h0a4.48,4.48,0,0,1,.4-2,4.35,4.35,0,0,1,1.91-2.09c1.4-.8,4-1.09,6.09,2.51l3.59,6.21-1.8,1.1-3.49-5.91c-1.2-2-2.59-2.81-4.1-1.91a2.7,2.7,0,0,0-1.2,3,3.21,3.21,0,0,0,.39,1l3.79,6.51-1.9,1.09-3.59-6.31c-1-1.7-2.39-2.5-3.89-1.61a3.38,3.38,0,0,0-.91,4.3l3.68,6.31-1.9,1.1Z" transform="translate(-0.1 -1)"/><rect class="cls-3" x="265.43" y="280.42" width="204.66" height="168.19"/><rect class="cls-4" x="167.57" y="366.55" width="400.39" height="205.61" rx="12"/><path class="cls-3" d="M477.91,657.8H260.6q2.88-84.1,5.77-168.2H472.7Q475.31,573.7,477.91,657.8Z" transform="translate(-0.1 -1)"/><line class="cls-5" x1="282.08" y1="502.28" x2="453.44" y2="502.28"/><line class="cls-5" x1="282.08" y1="527.77" x2="453.44" y2="527.77"/><line class="cls-5" x1="282.36" y1="555.94" x2="453.72" y2="555.94"/><line class="cls-5" x1="282.36" y1="581.43" x2="453.72" y2="581.43"/><line class="cls-5" x1="282.08" y1="606.92" x2="453.44" y2="606.92"/><line class="cls-5" x1="282.08" y1="632.41" x2="453.44" y2="632.41"/><path class="cls-3" d="M448.5,111.22a72.58,72.58,0,0,0-30.25,10.87,106,106,0,0,0-29.91,28.65c-7.67,10.72-13.7,22.3-17,35.14-.52,2.05-.88,4.15-1.34,6.25l.35.1c.3-.4.65-.8.95-1.24a306.72,306.72,0,0,1,30.91-36.41c10.17-10.2,21.09-19.59,33.35-27.27a5,5,0,0,1,.86-.45,2.17,2.17,0,0,1-.71.8,239,239,0,0,0-25.36,21.82A295,295,0,0,0,366,204.57a1.57,1.57,0,0,1-1.56.74l-18.72-.11c-1.7,0-2.46.63-2.52,2.08-.06,1.75-.07,3.51,0,5.26a2,2,0,0,0,2.14,2.11c.75.06,1.5,0,2.3,0l0,7.66-9.46-.06c-4.51,0-6.67,2-7.15,6.51q-1,8.78-2.21,17.56c-.58,4.1,1.16,6.21,5.27,6.24l59.41.36h1.1a4.51,4.51,0,0,0,4.44-4.63c0-.2,0-.4,0-.6-.76-6.46-1.52-13-2.23-19.44a6,6,0,0,0-6.28-5.64c-2.9-.07-5.8,0-8.76-.06h-1.35l0-7.66h1.8c1.85,0,2.61-.69,2.62-2.54l0-4.35c0-1.85-.69-2.56-2.54-2.57l-10-.06h-1.95c1.11-1.85,2.12-3.4,3-5a2.09,2.09,0,0,1,2.06-1.19c12.51,0,24.69-2,36-7.54,2.56-1.23,5-2.72,7.83-4.26a132.84,132.84,0,0,0-26.52-9.67,7,7,0,0,1,.7-.09c10.31.16,20.47,1.42,30.26,4.89a2.38,2.38,0,0,0,2.65-.54,82.38,82.38,0,0,0,11.84-12.84c6.72-9,11.63-19,15.7-29.39.91-2.3,1.73-4.64,2.7-7.24l-15.86-1.75a1.9,1.9,0,0,1,.5-.15c5.11-.57,10.22-1.18,15.38-1.7.95-.1,1.35-.35,1.61-1.25.61-2.29,1.38-4.49,2-6.79.92-3.1,1.79-6.2,2.71-9.29C459.66,110.78,452.3,110.79,448.5,111.22Zm-74.12,95.4,2.81,0,0,6.76-2.81,0Zm-3.06,18.25a5.65,5.65,0,0,1,.14,2.21,6.59,6.59,0,0,1-1.23,3.34,8,8,0,0,1-2.16,2,15.37,15.37,0,0,1-6,2.47c-.8.14-1.66.24-2.46.33h0a18,18,0,0,0,4.54,3.64,11.85,11.85,0,0,0,3.64,1.27A10,10,0,0,0,372,240h.15l.05.05c-.15.2-.31.45-.46.64a4,4,0,0,1-1.91,1.24,5.78,5.78,0,0,1-2.9.29,8.91,8.91,0,0,1-4.25-1.78,14.35,14.35,0,0,1-4.37-5.23s0-.15-.1-.2,0,0,0-.05l.8-.15a15.32,15.32,0,0,0,7.08-3,8.38,8.38,0,0,0,2.78-3.69,3.93,3.93,0,0,0,.11-2.4,2.55,2.55,0,0,0-2-1.71,6.42,6.42,0,0,0-2,.13,8.9,8.9,0,0,0-3.16,1.19,1.53,1.53,0,0,0-.41.39,44.11,44.11,0,0,0-3.7,8.49,37.93,37.93,0,0,0-1.29,5.35c-.15,1-.26,2-.37,3v.1a1.84,1.84,0,0,1-.69-.4,3,3,0,0,1-.8-1.51,11,11,0,0,1-.14-1.75,18.86,18.86,0,0,1,.78-4.7,16.05,16.05,0,0,1,2.33-4.64c.76-1.1,1.52-2.15,2.33-3.19a14.23,14.23,0,0,1,3.12-2.94,7.7,7.7,0,0,1,3.71-1.43,3.9,3.9,0,0,1,2.95.67,3.44,3.44,0,0,1,1.64,2.16Z" transform="translate(-0.1 -1)"/><path class="cls-4" d="M734.9,637.4V213.1l-29.3-16.9L427.8,35.8,367.5,1,307.2,35.8,29.4,196.2.1,213.1V637.3l29.3,16.9L310.7,816.6l56.9,32.8,56.9-32.8L705.8,654.2ZM29.4,621.5V231l50.2-29L367.5,35.8h0L656.1,202.4,705.6,231V621.5L367.5,816.7Z" transform="translate(-0.1 -1)"/><path class="cls-6" d="M368.19,816.14" transform="translate(-0.1 -1)"/><text class="cls-7" transform="translate(202.52 454.24)">pagedown</text></svg>